<svg width="32" height="32" viewBox="0 0 100 100" fill="none" xmlns="http://www.w3.org/2000/svg">
  <!-- Center Circle -->
  <circle cx="50" cy="50" r="12" fill="#FFB7C5"/>
  
  <!-- Petals -->
  <path d="M50 15C55 15 60 25 60 35C60 45 55 50 50 50C45 50 40 45 40 35C40 25 45 15 50 15" fill="#FFD7E0"/>
  <path d="M50 85C55 85 60 75 60 65C60 55 55 50 50 50C45 50 40 55 40 65C40 75 45 85 50 85" fill="#FFD7E0"/>
  <path d="M15 50C15 45 25 40 35 40C45 40 50 45 50 50C50 55 45 60 35 60C25 60 15 55 15 50" fill="#FFD7E0"/>
  <path d="M85 50C85 45 75 40 65 40C55 40 50 45 50 50C50 55 55 60 65 60C75 60 85 55 85 50" fill="#FFD7E0"/>
  
  <!-- Diagonal Petals -->
  <path d="M50 15C55 15 60 25 60 35C60 45 55 50 50 50C45 50 40 45 40 35C40 25 45 15 50 15" fill="#FFD7E0" transform="rotate(45 50 50)"/>
  <path d="M50 15C55 15 60 25 60 35C60 45 55 50 50 50C45 50 40 45 40 35C40 25 45 15 50 15" fill="#FFD7E0" transform="rotate(135 50 50)"/>
  <path d="M50 15C55 15 60 25 60 35C60 45 55 50 50 50C45 50 40 45 40 35C40 25 45 15 50 15" fill="#FFD7E0" transform="rotate(225 50 50)"/>
  <path d="M50 15C55 15 60 25 60 35C60 45 55 50 50 50C45 50 40 45 40 35C40 25 45 15 50 15" fill="#FFD7E0" transform="rotate(315 50 50)"/>
</svg>